0
SECTION
2
HEADER
9
$INSUNITS
70
4
9
$ACADVER
1
AC1014
9
$HANDSEED
5
FFFF
0
ENDSEC
0
SECTION
2
TABLES
0
TABLE
2
VPORT
5
8
100
AcDbSymbolTable
0
ENDTAB
0
TABLE
2
LTYPE
5
5
100
AcDbSymbolTable
0
LTYPE
5
14
100
AcDbSymbolTableRecord
100
AcDbLinetypeTableRecord
2
BYBLOCK
70
0
0
LTYPE
5
15
100
AcDbSymbolTableRecord
100
AcDbLinetypeTableRecord
2
BYLAYER
70
0
0
ENDTAB
0
TABLE
2
LAYER
5
2
100
AcDbSymbolTable
70
2
0
LAYER
5
50
100
AcDbSymbolTableRecord
100
AcDbLayerTableRecord
2
0
70
0
6
CONTINUOUS
0
ENDTAB
0
TABLE
2
STYLE
5
3
100
AcDbSymbolTable
70
1
0
STYLE
5
11
100
AcDbSymbolTableRecord
100
AcDbTextStyleTableRecord
2
STANDARD
70
0
0
ENDTAB
0
TABLE
2
VIEW
5
6
100
AcDbSymbolTable
70
0
0
ENDTAB
0
TABLE
2
UCS
5
7
100
AcDbSymbolTable
70
0
0
ENDTAB
0
TABLE
2
APPID
5
9
100
AcDbSymbolTable
70
2
0
APPID
5
12
100
AcDbSymbolTableRecord
100
AcDbRegAppTableRecord
2
ACAD
70
0
0
ENDTAB
0
TABLE
2
DIMSTYLE
5
A
100
AcDbSymbolTable
70
1
0
ENDTAB
0
TABLE
2
BLOCK_RECORD
5
1
100
AcDbSymbolTable
70
1
0
BLOCK_RECORD
5
1F
100
AcDbSymbolTableRecord
100
AcDbBlockTableRecord
2
*MODEL_SPACE
0
BLOCK_RECORD
5
1B
100
AcDbSymbolTableRecord
100
AcDbBlockTableRecord
2
*PAPER_SPACE
0
ENDTAB
0
ENDSEC
0
SECTION
2
BLOCKS
0
BLOCK
5
20
100
AcDbEntity
100
AcDbBlockBegin
2
*MODEL_SPACE
0
ENDBLK
5
21
100
AcDbEntity
100
AcDbBlockEnd
0
BLOCK
5
1C
100
AcDbEntity
100
AcDbBlockBegin
2
*PAPER_SPACE
0
ENDBLK
5
1D
100
AcDbEntity
100
AcDbBlockEnd
0
ENDSEC
0
SECTION
2
ENTITIES
0
LWPOLYLINE
5
100
100
AcDbEntity
8
0
100
AcDbPolyline
90
4
70
1
43
0.0
10
-1.999999999999994
20
-79.25
42
-0.99999999999999989
10
-5.1999999999999975
20
-79.25
10
-5.1999999999999975
20
-69.25
42
-0.99999999999999989
10
-1.9999999999999951
20
-69.25
0
LWPOLYLINE
5
101
100
AcDbEntity
8
0
100
AcDbPolyline
90
4
70
1
43
0.0
10
-14.799999999999997
20
-19.250000000000007
10
-14.799999999999997
20
-9.2500000000000071
42
0.99999999999999989
10
-18
20
-9.2500000000000071
10
-18
20
-19.250000000000007
42
0.99999999999999989
0
LWPOLYLINE
5
102
100
AcDbEntity
8
0
100
AcDbPolyline
90
4
70
1
43
0.0
10
-14.799999999999997
20
-39.250000000000007
10
-14.799999999999997
20
-29.250000000000007
42
0.99999999999999989
10
-18
20
-29.250000000000007
10
-18
20
-39.250000000000007
42
0.99999999999999989
0
CIRCLE
5
103
100
AcDbEntity
8
0
100
AcDbCircle
10
-7.5
20
-125.5
30
0
40
1.6000000000000003
210
0
220
-0
230
1
0
LWPOLYLINE
5
104
100
AcDbEntity
8
0
100
AcDbPolyline
90
4
70
1
43
0.0
10
-1.9999999999999918
20
-99.25
42
-0.99999999999999989
10
-5.1999999999999957
20
-99.25
10
-5.199999999999994
20
-89.25
42
-0.99999999999999989
10
-1.9999999999999933
20
-89.25
0
CIRCLE
5
105
100
AcDbEntity
8
0
100
AcDbCircle
10
-7.5
20
-3.0000000000000071
30
0
40
1.6000000000000003
210
0
220
-0
230
1
0
CIRCLE
5
106
100
AcDbEntity
8
0
100
AcDbCircle
10
-12.58
20
-125.5
30
0
40
1.6000000000000014
210
0
220
-0
230
1
0
LWPOLYLINE
5
107
100
AcDbEntity
8
0
100
AcDbPolyline
90
4
70
1
43
0.0
10
-1.9999999999999951
20
-59.250000000000007
42
-0.99999999999999989
10
-5.1999999999999975
20
-59.250000000000007
10
-5.1999999999999975
20
-49.250000000000007
42
-0.99999999999999989
10
-1.9999999999999956
20
-49.250000000000007
0
LWPOLYLINE
5
108
100
AcDbEntity
8
0
100
AcDbPolyline
90
4
70
1
43
0.0
10
-1.9999999999999973
20
-19.250000000000007
42
-0.99999999999999989
10
-5.2000000000000011
20
-19.250000000000007
10
-5.2000000000000028
20
-9.2500000000000053
42
-0.99999999999999989
10
-1.9999999999999993
20
-9.2500000000000071
0
LWPOLYLINE
5
109
100
AcDbEntity
8
0
100
AcDbPolyline
90
4
70
1
43
0.0
10
-14.799999999999997
20
-59.250000000000007
10
-14.799999999999997
20
-49.250000000000007
42
0.99999999999999989
10
-18
20
-49.250000000000007
10
-18
20
-59.250000000000007
42
0.99999999999999989
0
CIRCLE
5
110
100
AcDbEntity
8
0
100
AcDbCircle
10
-12.58
20
-3.0000000000000071
30
0
40
1.6000000000000014
210
0
220
-0
230
1
0
LWPOLYLINE
5
111
100
AcDbEntity
8
0
100
AcDbPolyline
90
4
70
1
43
0.0
10
-14.799999999999997
20
-79.25
10
-14.799999999999997
20
-69.25
42
0.99999999999999989
10
-18
20
-69.25
10
-18
20
-79.25
42
0.99999999999999989
0
LWPOLYLINE
5
112
100
AcDbEntity
8
0
100
AcDbPolyline
90
4
70
1
43
0.0
10
-1.9999999999999973
20
-39.250000000000007
42
-0.99999999999999989
10
-5.2000000000000002
20
-39.250000000000007
10
-5.2000000000000002
20
-29.250000000000007
42
-0.99999999999999989
10
-1.9999999999999973
20
-29.250000000000007
0
LWPOLYLINE
5
113
100
AcDbEntity
8
0
100
AcDbPolyline
90
4
70
1
43
0.0
10
-1.9999999999999907
20
-119.25
42
-0.99999999999999989
10
-5.199999999999994
20
-119.25
10
-5.1999999999999957
20
-109.25
42
-0.99999999999999989
10
-1.9999999999999929
20
-109.25
0
LWPOLYLINE
5
114
100
AcDbEntity
8
0
100
AcDbPolyline
90
4
70
1
43
0.0
10
-14.799999999999997
20
-119.25
42
-0.99999999999999989
10
-18
20
-119.25
10
-18
20
-109.25
42
-0.99999999999999989
10
-14.799999999999997
20
-109.25
0
LWPOLYLINE
5
115
100
AcDbEntity
8
0
100
AcDbPolyline
90
4
70
1
43
0.0
10
-14.799999999999997
20
-99.25
10
-14.799999999999997
20
-89.25
42
0.99999999999999989
10
-18
20
-89.25
10
-18
20
-99.25
42
0.99999999999999989
0
LWPOLYLINE
5
116
100
AcDbEntity
8
0
100
AcDbPolyline
90
8
70
1
43
0.0
10
-19
20
-128.5
42
-0.41421356237308266
10
-20
20
-127.50000000000003
10
-20
20
-1.0000000000000004
42
-0.41421356237309503
10
-19
20
0
10
-0.99999999999999512
20
-5.5511151231257827e-16
42
-0.41421356237309415
10
5.5511151231257827e-15
20
-0.99999999999999645
10
2.2204460492503131e-15
20
-127.50000000000001
42
-0.41421356237309503
10
-0.99999999999999423
20
-128.5
0
CIRCLE
5
117
100
AcDbEntity
8
0
100
AcDbCircle
10
-9.9999999999999964
20
-74.25
30
0
40
3.0499999999999994
210
0
220
-0
230
1
0
CIRCLE
5
118
100
AcDbEntity
8
0
100
AcDbCircle
10
-9.9999999999999982
20
-14.250000000000007
30
0
40
3.0499999999999994
210
0
220
-0
230
1
0
CIRCLE
5
119
100
AcDbEntity
8
0
100
AcDbCircle
10
-9.9999999999999982
20
-44.250000000000007
30
0
40
3.5499999999999998
210
0
220
-0
230
1
0
ENDSEC
0
SECTION
2
OBJECTS
0
DICTIONARY
5
C
100
AcDbDictionary
3
ACAD_GROUP
350
D
3
ACAD_MLINESTYLE
350
17
0
DICTIONARY
5
D
100
AcDbDictionary
0
DICTIONARY
5
1A
330
C
100
AcDbDictionary
0
DICTIONARY
5
17
100
AcDbDictionary
0
ENDSEC
0
EOF
